<svg width="14" height="16" viewBox="0 0 14 16" fill="none" xmlns="http://www.w3.org/2000/svg">
<path d="M12.5 2H9.75V1.5C9.75 0.672906 9.07709 0 8.25 0H6.25C5.42291 0 4.75 0.672906 4.75 1.5V2H2C1.31075 2 0.75 2.56075 0.75 3.25V5C0.75 5.27612 0.973875 5.5 1.25 5.5H1.52325L1.95522 14.5713C1.99338 15.3725 2.6515 16 3.4535 16H11.0465C11.8485 16 12.5067 15.3725 12.5448 14.5713L12.9768 5.5H13.25C13.5261 5.5 13.75 5.27612 13.75 5V3.25C13.75 2.56075 13.1892 2 12.5 2ZM5.75 1.5C5.75 1.22431 5.97431 1 6.25 1H8.25C8.52569 1 8.75 1.22431 8.75 1.5V2H5.75V1.5ZM1.75 3.25C1.75 3.11216 1.86216 3 2 3H12.5C12.6378 3 12.75 3.11216 12.75 3.25V4.5C12.5959 4.5 2.38853 4.5 1.75 4.5V3.25ZM11.5459 14.5238C11.5332 14.7908 11.3138 15 11.0465 15H3.4535C3.18616 15 2.96678 14.7908 2.95409 14.5238L2.52437 5.5H11.9756L11.5459 14.5238Z" fill="#FF4343"/>
<path d="M7.25 14C7.52613 14 7.75 13.7761 7.75 13.5V7C7.75 6.72387 7.52613 6.5 7.25 6.5C6.97387 6.5 6.75 6.72387 6.75 7V13.5C6.75 13.7761 6.97384 14 7.25 14Z" fill="#FF4343"/>
<path d="M9.75 14C10.0261 14 10.25 13.7761 10.25 13.5V7C10.25 6.72387 10.0261 6.5 9.75 6.5C9.47387 6.5 9.25 6.72387 9.25 7V13.5C9.25 13.7761 9.47384 14 9.75 14Z" fill="#FF4343"/>
<path d="M4.75 14C5.02613 14 5.25 13.7761 5.25 13.5V7C5.25 6.72387 5.02613 6.5 4.75 6.5C4.47387 6.5 4.25 6.72387 4.25 7V13.5C4.25 13.7761 4.47384 14 4.75 14Z" fill="#FF4343"/>
</svg>
