<svg width="16" height="16" viewBox="0 0 16 16" fill="none" xmlns="http://www.w3.org/2000/svg">
<path d="M8.61179 7.4178L8.61171 1.38676C8.61179 0.994364 8.30844 0.677216 7.9331 0.677309C7.55786 0.677308 7.2545 0.994456 7.2545 1.38676L7.2545 7.41789L1.48568 7.4178C1.11034 7.41789 0.807073 7.73495 0.807073 8.12725C0.806985 8.51964 1.11034 8.83679 1.48568 8.8367L7.2545 8.83679L7.25459 14.8678C7.2545 15.2602 7.55786 15.5774 7.93319 15.5773C8.12029 15.5774 8.29024 15.498 8.4131 15.3696C8.53595 15.2411 8.61179 15.0635 8.61179 14.8678L8.61171 8.83679L14.3806 8.83679C14.5678 8.83679 14.7377 8.7575 14.8605 8.62906C14.9834 8.50062 15.0592 8.32303 15.0592 8.12734C15.0593 7.73495 14.756 7.4178 14.3806 7.41789L8.61179 7.4178Z" fill="black"/>
</svg>
