<svg width="16" height="16" viewBox="0 0 16 16" fill="none" xmlns="http://www.w3.org/2000/svg">
<path d="M9.78324 8.17503L15.647 2.31113C16.0286 1.92971 16.0286 1.313 15.647 0.931575C15.2655 0.550152 14.6488 0.550152 14.2674 0.931575L8.4035 6.79548L2.53978 0.931575C2.15818 0.550152 1.54165 0.550152 1.16022 0.931575C0.778623 1.313 0.778623 1.92971 1.16022 2.31113L7.02395 8.17503L1.16023 14.0389C0.778625 14.4204 0.778626 15.0371 1.16023 15.4185C1.35031 15.6088 1.60025 15.7043 1.85 15.7043C2.09976 15.7043 2.34952 15.6088 2.53978 15.4185L8.4035 9.55458L14.2674 15.4185C14.4577 15.6088 14.7074 15.7043 14.9572 15.7043C15.2069 15.7043 15.4567 15.6088 15.647 15.4185C16.0286 15.0371 16.0286 14.4204 15.647 14.0389L9.78324 8.17503Z" fill="black"/>
</svg>
