<svg width="105" height="11" viewBox="0 0 105 11" fill="none" xmlns="http://www.w3.org/2000/svg">
<path d="M6.05249 5.50171C6.05249 6.09937 5.88257 6.5564 5.54272 6.8728C5.20679 7.1853 4.73022 7.34155 4.11304 7.34155C3.49976 7.34155 3.00757 7.13647 2.63647 6.72632C2.26929 6.31226 2.08569 5.74976 2.08569 5.03882V4.39429C2.08569 3.70679 2.27124 3.15796 2.64233 2.7478C3.01733 2.33374 3.50757 2.12671 4.11304 2.12671C4.73804 2.12671 5.21851 2.28687 5.55444 2.60718C5.89038 2.92749 6.05835 3.37866 6.05835 3.96069H5.20288C5.20288 3.57397 5.10913 3.29858 4.92163 3.13452C4.73804 2.96655 4.46851 2.88257 4.11304 2.88257C3.74585 2.88257 3.45679 3.01733 3.24585 3.28687C3.03491 3.5564 2.92944 3.9314 2.92944 4.41187V5.07397C2.92944 5.54272 3.03491 5.91187 3.24585 6.1814C3.45679 6.45093 3.74585 6.58569 4.11304 6.58569C4.47241 6.58569 4.74194 6.50366 4.92163 6.3396C5.10522 6.17554 5.19702 5.89624 5.19702 5.50171H6.05249ZM0.702881 4.72827C0.702881 5.40015 0.859131 6.02319 1.17163 6.59741C1.48413 7.16772 1.90796 7.61499 2.44312 7.93921C2.98218 8.26343 3.56421 8.42554 4.18921 8.42554C4.81421 8.42554 5.39429 8.26343 5.92944 7.93921C6.4646 7.61499 6.88843 7.16772 7.20093 6.59741C7.51343 6.02319 7.66968 5.40015 7.66968 4.72827C7.66968 4.06421 7.51538 3.44897 7.20679 2.88257C6.89819 2.31616 6.47437 1.87085 5.9353 1.54663C5.40015 1.21851 4.81812 1.05444 4.18921 1.05444C3.56421 1.05444 2.98218 1.21655 2.44312 1.54077C1.90405 1.86108 1.47827 2.3064 1.16577 2.87671C0.857178 3.44702 0.702881 4.06421 0.702881 4.72827ZM0.0290527 4.72827C0.0290527 3.93921 0.210693 3.20679 0.573975 2.53101C0.941162 1.85522 1.44702 1.32397 2.09155 0.937256C2.73999 0.546631 3.43921 0.351318 4.18921 0.351318C4.93921 0.351318 5.63647 0.546631 6.28101 0.937256C6.92554 1.32397 7.42944 1.85522 7.79272 2.53101C8.15991 3.20679 8.34351 3.93921 8.34351 4.72827C8.34351 5.4978 8.16772 6.21851 7.81616 6.89038C7.4646 7.56226 6.9646 8.10327 6.31616 8.51343C5.67163 8.91968 4.96265 9.1228 4.18921 9.1228C3.41968 9.1228 2.71069 8.92163 2.06226 8.51929C1.41772 8.11304 0.917725 7.57397 0.562256 6.9021C0.206787 6.23022 0.0290527 5.50562 0.0290527 4.72827ZM14.0212 5.65991V8.99976H12.8962V0.468506H16.0427C16.9763 0.468506 17.7068 0.706787 18.2341 1.18335C18.7654 1.65991 19.031 2.29077 19.031 3.07593C19.031 3.90405 18.7712 4.54272 18.2517 4.99194C17.7361 5.43726 16.9958 5.65991 16.031 5.65991H14.0212ZM14.0212 4.73999H16.0427C16.6443 4.73999 17.1052 4.59937 17.4255 4.31812C17.7458 4.03296 17.906 3.6228 17.906 3.08765C17.906 2.57983 17.7458 2.17358 17.4255 1.8689C17.1052 1.56421 16.6658 1.40601 16.1072 1.39429H14.0212V4.73999ZM21.4744 8.99976H20.3904V-0.000244141H21.4744V8.99976ZM27.1287 8.99976C27.0662 8.87476 27.0154 8.6521 26.9763 8.33179C26.4724 8.85522 25.8708 9.11694 25.1716 9.11694C24.5466 9.11694 24.033 8.94116 23.6306 8.5896C23.2322 8.23413 23.033 7.78491 23.033 7.24194C23.033 6.58179 23.283 6.07007 23.783 5.70679C24.2869 5.3396 24.9939 5.15601 25.9041 5.15601H26.9587V4.65796C26.9587 4.27905 26.8455 3.97827 26.6189 3.75562C26.3923 3.52905 26.0583 3.41577 25.6169 3.41577C25.2302 3.41577 24.906 3.51343 24.6443 3.70874C24.3826 3.90405 24.2517 4.14038 24.2517 4.41772H23.1619C23.1619 4.10132 23.2732 3.79663 23.4958 3.50366C23.7224 3.20679 24.0271 2.97241 24.4099 2.80054C24.7966 2.62866 25.2205 2.54272 25.6814 2.54272C26.4119 2.54272 26.9841 2.72632 27.3982 3.09351C27.8123 3.45679 28.0271 3.95874 28.0427 4.59937V7.51733C28.0427 8.09937 28.1169 8.56226 28.2654 8.90601V8.99976H27.1287ZM25.3298 8.17358C25.6697 8.17358 25.9919 8.08569 26.2966 7.90991C26.6013 7.73413 26.822 7.50562 26.9587 7.22437V5.92358H26.1091C24.781 5.92358 24.1169 6.31226 24.1169 7.0896C24.1169 7.42944 24.2302 7.69507 24.4568 7.88647C24.6833 8.07788 24.9744 8.17358 25.3298 8.17358ZM32.2849 8.23218C32.6716 8.23218 33.0095 8.11499 33.2986 7.88062C33.5876 7.64624 33.7478 7.35327 33.7791 7.00171H34.8044C34.7849 7.36499 34.6599 7.71069 34.4294 8.03882C34.199 8.36694 33.8904 8.62866 33.5037 8.82397C33.1208 9.01929 32.7146 9.11694 32.2849 9.11694C31.4216 9.11694 30.7341 8.82983 30.2224 8.25562C29.7146 7.67749 29.4607 6.88843 29.4607 5.88843V5.70679C29.4607 5.0896 29.574 4.54077 29.8005 4.0603C30.0271 3.57983 30.3513 3.20679 30.7732 2.94116C31.199 2.67554 31.7009 2.54272 32.2791 2.54272C32.99 2.54272 33.5798 2.75562 34.0486 3.1814C34.5212 3.60718 34.7732 4.15991 34.8044 4.8396H33.7791C33.7478 4.42944 33.5916 4.09351 33.3103 3.83179C33.033 3.56616 32.6892 3.43335 32.2791 3.43335C31.7283 3.43335 31.3005 3.63257 30.9958 4.03101C30.6951 4.42554 30.5447 4.9978 30.5447 5.7478V5.95288C30.5447 6.68335 30.6951 7.24585 30.9958 7.64038C31.2966 8.03491 31.7263 8.23218 32.2849 8.23218ZM38.6541 9.11694C37.7947 9.11694 37.0955 8.83569 36.5564 8.27319C36.0173 7.70679 35.7478 6.95093 35.7478 6.00562V5.8064C35.7478 5.17749 35.8669 4.61694 36.1052 4.12476C36.3474 3.62866 36.6833 3.24194 37.113 2.9646C37.5466 2.68335 38.0154 2.54272 38.5193 2.54272C39.3435 2.54272 39.9841 2.81421 40.4412 3.35718C40.8982 3.90015 41.1267 4.67749 41.1267 5.68921V6.14038H36.8318C36.8474 6.76538 37.0291 7.27124 37.3767 7.65796C37.7283 8.04077 38.1736 8.23218 38.7126 8.23218C39.0955 8.23218 39.4197 8.15405 39.6853 7.9978C39.9509 7.84155 40.1833 7.63452 40.3826 7.37671L41.0447 7.89233C40.5134 8.70874 39.7166 9.11694 38.6541 9.11694ZM38.5193 3.43335C38.0818 3.43335 37.7146 3.59351 37.4177 3.91382C37.1208 4.23022 36.9373 4.67554 36.8669 5.24976H40.0427V5.16772C40.0115 4.61694 39.863 4.19116 39.5974 3.89038C39.3318 3.58569 38.9724 3.43335 38.5193 3.43335ZM44.0095 0.468506L46.7986 7.42944L49.5876 0.468506H51.0466V8.99976H49.9216V5.67749L50.0271 2.09155L47.2263 8.99976H46.365L43.5701 2.10913L43.6814 5.67749V8.99976H42.5564V0.468506H44.0095ZM54.0408 8.99976H52.9568V2.65991H54.0408V8.99976ZM52.8689 0.978271C52.8689 0.80249 52.9216 0.654053 53.0271 0.532959C53.1365 0.411865 53.2966 0.351318 53.5076 0.351318C53.7185 0.351318 53.8787 0.411865 53.988 0.532959C54.0974 0.654053 54.1521 0.80249 54.1521 0.978271C54.1521 1.15405 54.0974 1.30054 53.988 1.41772C53.8787 1.53491 53.7185 1.59351 53.5076 1.59351C53.2966 1.59351 53.1365 1.53491 53.0271 1.41772C52.9216 1.30054 52.8689 1.15405 52.8689 0.978271ZM57.5505 6.06421L56.8708 6.77319V8.99976H55.7869V-0.000244141H56.8708V5.44312L57.4509 4.74585L59.4255 2.65991H60.7439L58.2771 5.30835L61.031 8.99976H59.7595L57.5505 6.06421ZM61.8865 8.4314C61.8865 8.2439 61.9412 8.08765 62.0505 7.96265C62.1638 7.83765 62.3318 7.77515 62.5544 7.77515C62.7771 7.77515 62.9451 7.83765 63.0583 7.96265C63.1755 8.08765 63.2341 8.2439 63.2341 8.4314C63.2341 8.61108 63.1755 8.76147 63.0583 8.88257C62.9451 9.00366 62.7771 9.06421 62.5544 9.06421C62.3318 9.06421 62.1638 9.00366 62.0505 8.88257C61.9412 8.76147 61.8865 8.61108 61.8865 8.4314ZM68.0916 3.63257C67.9275 3.60522 67.7498 3.59155 67.5583 3.59155C66.8474 3.59155 66.365 3.89429 66.1111 4.49976V8.99976H65.0271V2.65991H66.0818L66.0994 3.39233C66.4548 2.82593 66.9587 2.54272 67.6111 2.54272C67.822 2.54272 67.9822 2.57007 68.0916 2.62476V3.63257ZM73.0076 8.3728C72.5857 8.8689 71.9666 9.11694 71.1501 9.11694C70.4744 9.11694 69.9587 8.92163 69.6033 8.53101C69.2517 8.13647 69.074 7.55444 69.0701 6.78491V2.65991H70.1541V6.75562C70.1541 7.71655 70.5447 8.19702 71.3259 8.19702C72.1541 8.19702 72.7048 7.88843 72.9783 7.27124V2.65991H74.0623V8.99976H73.031L73.0076 8.3728ZM75.6794 10.699L75.0642 10.2771C75.4314 9.76538 75.6228 9.23804 75.6384 8.69507V7.71655H76.699V8.56616C76.699 8.96069 76.6013 9.35522 76.406 9.74976C76.2146 10.1443 75.9724 10.4607 75.6794 10.699ZM86.5251 8.99976H80.9353V8.22046L83.8884 4.93921C84.3259 4.44312 84.6267 4.04077 84.7908 3.73218C84.9587 3.41968 85.0427 3.09741 85.0427 2.76538C85.0427 2.32007 84.908 1.95483 84.6384 1.66968C84.3689 1.38452 84.0095 1.24194 83.5603 1.24194C83.0212 1.24194 82.6013 1.39624 82.3005 1.70483C82.0037 2.00952 81.8552 2.4353 81.8552 2.98218H80.7712C80.7712 2.19702 81.0232 1.56226 81.5271 1.07788C82.0349 0.593506 82.7126 0.351318 83.5603 0.351318C84.3533 0.351318 84.9802 0.560303 85.4412 0.978271C85.9021 1.39233 86.1326 1.94507 86.1326 2.63647C86.1326 3.47632 85.5974 4.47632 84.5271 5.63647L82.2419 8.11499H86.5251V8.99976ZM93.0232 5.36108C93.0232 6.63062 92.8064 7.57397 92.3728 8.19116C91.9392 8.80835 91.2615 9.11694 90.3396 9.11694C89.4294 9.11694 88.7556 8.81616 88.3181 8.2146C87.8806 7.60913 87.6541 6.70679 87.6384 5.50757V4.0603C87.6384 2.8064 87.8552 1.87476 88.2888 1.26538C88.7224 0.656006 89.4021 0.351318 90.3279 0.351318C91.2458 0.351318 91.9216 0.64624 92.3552 1.23608C92.7888 1.82202 93.0115 2.72827 93.0232 3.95483V5.36108ZM91.9392 3.87866C91.9392 2.96069 91.8103 2.29272 91.5525 1.87476C91.2947 1.45288 90.8865 1.24194 90.3279 1.24194C89.7732 1.24194 89.3689 1.45093 89.115 1.8689C88.8611 2.28687 88.7302 2.92944 88.7224 3.79663V5.53101C88.7224 6.45288 88.8552 7.13452 89.1208 7.57593C89.3904 8.01343 89.7966 8.23218 90.3396 8.23218C90.8748 8.23218 91.2712 8.02515 91.5291 7.61108C91.7908 7.19702 91.9275 6.54468 91.9392 5.65405V3.87866ZM100.002 8.99976H94.4119V8.22046L97.365 4.93921C97.8025 4.44312 98.1033 4.04077 98.2673 3.73218C98.4353 3.41968 98.5193 3.09741 98.5193 2.76538C98.5193 2.32007 98.3845 1.95483 98.115 1.66968C97.8455 1.38452 97.4861 1.24194 97.0369 1.24194C96.4978 1.24194 96.0779 1.39624 95.7771 1.70483C95.4802 2.00952 95.3318 2.4353 95.3318 2.98218H94.2478C94.2478 2.19702 94.4998 1.56226 95.0037 1.07788C95.5115 0.593506 96.1892 0.351318 97.0369 0.351318C97.8298 0.351318 98.4568 0.560303 98.9177 0.978271C99.3787 1.39233 99.6091 1.94507 99.6091 2.63647C99.6091 3.47632 99.074 4.47632 98.0037 5.63647L95.7185 8.11499H100.002V8.99976ZM104.713 8.99976H103.623V1.77515L101.437 2.57788V1.59351L104.543 0.42749H104.713V8.99976Z" fill="white"/>
</svg>
