<svg width="16" height="16" viewBox="0 0 16 16" fill="none" xmlns="http://www.w3.org/2000/svg">
<path d="M9.78345 8.17503L15.6472 2.31113C16.0288 1.92971 16.0288 1.313 15.6472 0.931575C15.2658 0.550152 14.649 0.550152 14.2676 0.931575L8.40372 6.79548L2.53999 0.931575C2.15839 0.550152 1.54186 0.550152 1.16044 0.931575C0.778837 1.313 0.778837 1.92971 1.16044 2.31113L7.02417 8.17503L1.16044 14.0389C0.778839 14.4204 0.778839 15.0371 1.16044 15.4185C1.35053 15.6088 1.60046 15.7043 1.85022 15.7043C2.09997 15.7043 2.34973 15.6088 2.53999 15.4185L8.40372 9.55458L14.2676 15.4185C14.4579 15.6088 14.7076 15.7043 14.9574 15.7043C15.2072 15.7043 15.4569 15.6088 15.6472 15.4185C16.0288 15.0371 16.0288 14.4204 15.6472 14.0389L9.78345 8.17503Z" fill="url(#paint0_linear_111_189978)"/>
<defs>
<linearGradient id="paint0_linear_111_189978" x1="-7.50241" y1="-9.81201" x2="18.7912" y2="-6.6879" gradientUnits="userSpaceOnUse">
<stop stop-color="#F64D4D"/>
<stop offset="1" stop-color="#4D5EF6"/>
</linearGradient>
</defs>
</svg>
