<svg width="79" height="17" viewBox="0 0 79 17" fill="none" xmlns="http://www.w3.org/2000/svg">
<path d="M0.358398 16.5V0.859375H4.77344C6.13411 0.859375 7.33724 1.16016 8.38281 1.76172C9.42839 2.36328 10.234 3.21908 10.7998 4.3291C11.3727 5.43913 11.6628 6.71387 11.6699 8.15332V9.15234C11.6699 10.6276 11.3835 11.9202 10.8105 13.0303C10.2448 14.1403 9.43197 14.9925 8.37207 15.5869C7.31934 16.1813 6.09115 16.4857 4.6875 16.5H0.358398ZM2.4209 2.55664V14.8135H4.59082C6.18066 14.8135 7.41602 14.3193 8.29688 13.3311C9.1849 12.3428 9.62891 10.9355 9.62891 9.10938V8.19629C9.62891 6.42025 9.20996 5.04167 8.37207 4.06055C7.54134 3.07227 6.3597 2.57096 4.82715 2.55664H2.4209ZM23.6367 9.27051H16.8584V14.8135H24.7324V16.5H14.7959V0.859375H24.625V2.55664H16.8584V7.58398H23.6367V9.27051ZM39.3203 16.5H37.2471L29.373 4.44727V16.5H27.2998V0.859375H29.373L37.2686 12.9658V0.859375H39.3203V16.5ZM47.5918 9.52832C45.8229 9.01986 44.5339 8.39681 43.7246 7.65918C42.9225 6.91439 42.5215 5.99772 42.5215 4.90918C42.5215 3.67741 43.012 2.66048 43.9932 1.8584C44.9814 1.04915 46.2633 0.644531 47.8389 0.644531C48.9131 0.644531 49.8691 0.852214 50.707 1.26758C51.5521 1.68294 52.2038 2.25586 52.6621 2.98633C53.1276 3.7168 53.3604 4.5153 53.3604 5.38184H51.2871C51.2871 4.43652 50.9863 3.69531 50.3848 3.1582C49.7832 2.61393 48.9346 2.3418 47.8389 2.3418C46.8219 2.3418 46.027 2.56738 45.4541 3.01855C44.8883 3.46257 44.6055 4.08203 44.6055 4.87695C44.6055 5.51432 44.874 6.05501 45.4111 6.49902C45.9554 6.93587 46.8757 7.33691 48.1719 7.70215C49.4753 8.06738 50.4922 8.47201 51.2227 8.91602C51.9603 9.35286 52.5046 9.86491 52.8555 10.4521C53.2135 11.0394 53.3926 11.7305 53.3926 12.5254C53.3926 13.793 52.8984 14.8099 51.9102 15.5762C50.9219 16.3353 49.6006 16.7148 47.9463 16.7148C46.8721 16.7148 45.8695 16.5107 44.9385 16.1025C44.0075 15.6872 43.2878 15.1214 42.7793 14.4053C42.278 13.6891 42.0273 12.8763 42.0273 11.9668H44.1006C44.1006 12.9121 44.4479 13.6605 45.1426 14.2119C45.8444 14.7562 46.779 15.0283 47.9463 15.0283C49.0348 15.0283 49.8691 14.8063 50.4492 14.3623C51.0293 13.9183 51.3193 13.3132 51.3193 12.5469C51.3193 11.7806 51.0508 11.1898 50.5137 10.7744C49.9766 10.3519 49.0026 9.93652 47.5918 9.52832ZM64.8867 9.27051H58.1084V14.8135H65.9824V16.5H56.0459V0.859375H65.875V2.55664H58.1084V7.58398H64.8867V9.27051ZM70.623 14.8135H78.0352V16.5H68.5498V0.859375H70.623V14.8135Z" fill="black"/>
</svg>
