<svg width="50" height="50" viewBox="0 0 50 50" fill="none" xmlns="http://www.w3.org/2000/svg">
<rect opacity="0.2" width="50" height="50" fill="url(#paint0_linear_111_140498)"/>
<g clip-path="url(#clip0_111_140498)">
<path d="M25.0776 23.4534C24.4016 23.4534 23.8535 24.0014 23.8535 24.6774C23.8535 25.3535 24.4015 25.9015 25.0776 25.9015C25.7536 25.9015 26.3016 25.3535 26.3016 24.6774C26.3016 24.0014 25.7536 23.4534 25.0776 23.4534ZM25.0776 25.3186C24.7235 25.3186 24.4364 25.0315 24.4364 24.6774C24.4364 24.3233 24.7235 24.0362 25.0776 24.0362C25.4317 24.0362 25.7188 24.3233 25.7188 24.6774C25.7188 25.0315 25.4317 25.3186 25.0776 25.3186Z" fill="black"/>
<path d="M29.9587 20.6555L22.0023 19.7521C21.6935 19.7082 21.3806 19.7983 21.1425 19.9998C20.9045 20.1844 20.7519 20.458 20.7199 20.7576L20.5742 21.9525H20.1225C19.4813 21.9525 19.0004 22.5208 19.0004 23.162V29.122C18.9842 29.7334 19.4668 30.2422 20.0783 30.2583C20.093 30.2587 20.1077 30.2588 20.1225 30.2586H28.1226C28.7637 30.2586 29.3466 29.7632 29.3466 29.122V28.8888C29.5454 28.8504 29.734 28.771 29.9004 28.6557C30.1365 28.4569 30.2877 28.1754 30.323 27.8688L30.9933 21.9525C31.0616 21.3098 30.6004 20.7317 29.9587 20.6555ZM28.7637 29.122C28.7637 29.4426 28.4432 29.6757 28.1226 29.6757H20.1225C19.8329 29.6842 19.5912 29.4564 19.5827 29.1668C19.5822 29.1518 19.5824 29.1369 19.5833 29.122V28.0437L21.842 26.3824C22.1133 26.1741 22.4955 26.1926 22.7455 26.4261L24.3338 27.8251C24.575 28.0276 24.8787 28.1408 25.1936 28.1457C25.4398 28.1487 25.682 28.0831 25.8931 27.9562L28.7638 26.295V29.122H28.7637ZM28.7637 25.6101L25.587 27.4608C25.3142 27.6224 24.969 27.5931 24.7272 27.3879L23.1243 25.9744C22.6649 25.5796 21.9934 25.5554 21.5068 25.9161L19.5833 27.315V23.162C19.5833 22.8414 19.8019 22.5354 20.1225 22.5354H28.1226C28.4651 22.5496 28.7417 22.8199 28.7637 23.162V25.6101ZM30.411 21.8738C30.4108 21.8757 30.4106 21.8777 30.4104 21.8796L29.7255 27.7959C29.7267 27.9493 29.6567 28.0946 29.536 28.1894C29.4778 28.2477 29.3466 28.2768 29.3466 28.306V23.162C29.3236 22.4981 28.7866 21.9675 28.1225 21.9525H21.1571L21.2882 20.8159C21.3167 20.6687 21.3936 20.5353 21.5068 20.437C21.6346 20.3486 21.7891 20.3074 21.944 20.3204L29.8858 21.2384C30.2063 21.2689 30.4414 21.5533 30.411 21.8738Z" fill="black"/>
</g>
<defs>
<linearGradient id="paint0_linear_111_140498" x1="-27.8125" y1="-34.7222" x2="59.4889" y2="-24.3496" gradientUnits="userSpaceOnUse">
<stop stop-color="#F64D4D"/>
<stop offset="1" stop-color="#4D5EF6"/>
</linearGradient>
<clipPath id="clip0_111_140498">
<rect width="12" height="12" fill="white" transform="translate(19 19)"/>
</clipPath>
</defs>
</svg>
