<svg width="50" height="50" viewBox="0 0 50 50" fill="none" xmlns="http://www.w3.org/2000/svg">
<circle opacity="0.2" cx="25" cy="25" r="25" fill="url(#paint0_linear_111_106473)"/>
<path d="M17.3281 18.625V26.3594C17.3229 27.4323 16.9844 28.3099 16.3125 28.9922C15.6458 29.6745 14.7396 30.0573 13.5938 30.1406L13.1953 30.1562C11.9505 30.1562 10.9583 29.8203 10.2188 29.1484C9.47917 28.4766 9.10417 27.5521 9.09375 26.375V18.625H10.5781V26.3281C10.5781 27.151 10.8047 27.7917 11.2578 28.25C11.7109 28.7031 12.3568 28.9297 13.1953 28.9297C14.0443 28.9297 14.6927 28.7031 15.1406 28.25C15.5938 27.7969 15.8203 27.1589 15.8203 26.3359V18.625H17.3281ZM24.3906 27.7578C24.3906 27.3672 24.2422 27.0651 23.9453 26.8516C23.6536 26.6328 23.1406 26.4453 22.4062 26.2891C21.6771 26.1328 21.0964 25.9453 20.6641 25.7266C20.237 25.5078 19.9193 25.2474 19.7109 24.9453C19.5078 24.6432 19.4062 24.2839 19.4062 23.8672C19.4062 23.1745 19.6979 22.5885 20.2812 22.1094C20.8698 21.6302 21.6198 21.3906 22.5312 21.3906C23.4896 21.3906 24.2656 21.638 24.8594 22.1328C25.4583 22.6276 25.7578 23.2604 25.7578 24.0312H24.3047C24.3047 23.6354 24.1354 23.2943 23.7969 23.0078C23.4635 22.7214 23.0417 22.5781 22.5312 22.5781C22.0052 22.5781 21.5938 22.6927 21.2969 22.9219C21 23.151 20.8516 23.4505 20.8516 23.8203C20.8516 24.1693 20.9896 24.4323 21.2656 24.6094C21.5417 24.7865 22.0391 24.9557 22.7578 25.1172C23.4818 25.2786 24.0677 25.4714 24.5156 25.6953C24.9635 25.9193 25.2943 26.1901 25.5078 26.5078C25.7266 26.8203 25.8359 27.2031 25.8359 27.6562C25.8359 28.4115 25.5339 29.0182 24.9297 29.4766C24.3255 29.9297 23.5417 30.1562 22.5781 30.1562C21.901 30.1562 21.3021 30.0365 20.7812 29.7969C20.2604 29.5573 19.8516 29.224 19.5547 28.7969C19.263 28.3646 19.1172 27.8984 19.1172 27.3984H20.5625C20.5885 27.8828 20.7812 28.2682 21.1406 28.5547C21.5052 28.8359 21.9844 28.9766 22.5781 28.9766C23.125 28.9766 23.5625 28.8672 23.8906 28.6484C24.224 28.4245 24.3906 28.1276 24.3906 27.7578ZM31.2266 30.1562C30.0807 30.1562 29.1484 29.7812 28.4297 29.0312C27.7109 28.276 27.3516 27.2682 27.3516 26.0078V25.7422C27.3516 24.9036 27.5104 24.1562 27.8281 23.5C28.151 22.8385 28.599 22.3229 29.1719 21.9531C29.75 21.5781 30.375 21.3906 31.0469 21.3906C32.1458 21.3906 33 21.7526 33.6094 22.4766C34.2188 23.2005 34.5234 24.237 34.5234 25.5859V26.1875H28.7969C28.8177 27.0208 29.0599 27.6953 29.5234 28.2109C29.9922 28.7214 30.5859 28.9766 31.3047 28.9766C31.8151 28.9766 32.2474 28.8724 32.6016 28.6641C32.9557 28.4557 33.2656 28.1797 33.5312 27.8359L34.4141 28.5234C33.7057 29.612 32.6432 30.1562 31.2266 30.1562ZM31.0469 22.5781C30.4635 22.5781 29.974 22.7917 29.5781 23.2188C29.1823 23.6406 28.9375 24.2344 28.8438 25H33.0781V24.8906C33.0365 24.1562 32.8385 23.5885 32.4844 23.1875C32.1302 22.7812 31.651 22.5781 31.0469 22.5781ZM40.2891 22.8438C40.0703 22.8073 39.8333 22.7891 39.5781 22.7891C38.6302 22.7891 37.987 23.1927 37.6484 24V30H36.2031V21.5469H37.6094L37.6328 22.5234C38.1068 21.7682 38.7786 21.3906 39.6484 21.3906C39.9297 21.3906 40.1432 21.4271 40.2891 21.5V22.8438Z" fill="black"/>
<defs>
<linearGradient id="paint0_linear_111_106473" x1="-27.8125" y1="-34.7222" x2="59.4889" y2="-24.3496" gradientUnits="userSpaceOnUse">
<stop stop-color="#F64D4D"/>
<stop offset="1" stop-color="#4D5EF6"/>
</linearGradient>
</defs>
</svg>
