<svg width="76" height="18" viewBox="0 0 76 18" fill="none" xmlns="http://www.w3.org/2000/svg">
<path d="M2.78516 15.6602H10.8711V17.5H0.523438V0.4375H2.78516V15.6602ZM23.0938 13.0469H15.9453L14.3398 17.5H12.0195L18.5352 0.4375H20.5039L27.0312 17.5H24.7227L23.0938 13.0469ZM16.625 11.1953H22.4258L19.5195 3.21484L16.625 11.1953ZM34.3555 9.89453C32.4258 9.33984 31.0195 8.66016 30.1367 7.85547C29.2617 7.04297 28.8242 6.04297 28.8242 4.85547C28.8242 3.51172 29.3594 2.40234 30.4297 1.52734C31.5078 0.644531 32.9062 0.203125 34.625 0.203125C35.7969 0.203125 36.8398 0.429687 37.7539 0.882812C38.6758 1.33594 39.3867 1.96094 39.8867 2.75781C40.3945 3.55469 40.6484 4.42578 40.6484 5.37109H38.3867C38.3867 4.33984 38.0586 3.53125 37.4023 2.94531C36.7461 2.35156 35.8203 2.05469 34.625 2.05469C33.5156 2.05469 32.6484 2.30078 32.0234 2.79297C31.4062 3.27734 31.0977 3.95312 31.0977 4.82031C31.0977 5.51562 31.3906 6.10547 31.9766 6.58984C32.5703 7.06641 33.5742 7.50391 34.9883 7.90234C36.4102 8.30078 37.5195 8.74219 38.3164 9.22656C39.1211 9.70312 39.7148 10.2617 40.0977 10.9023C40.4883 11.543 40.6836 12.2969 40.6836 13.1641C40.6836 14.5469 40.1445 15.6562 39.0664 16.4922C37.9883 17.3203 36.5469 17.7344 34.7422 17.7344C33.5703 17.7344 32.4766 17.5117 31.4609 17.0664C30.4453 16.6133 29.6602 15.9961 29.1055 15.2148C28.5586 14.4336 28.2852 13.5469 28.2852 12.5547H30.5469C30.5469 13.5859 30.9258 14.4023 31.6836 15.0039C32.4492 15.5977 33.4688 15.8945 34.7422 15.8945C35.9297 15.8945 36.8398 15.6523 37.4727 15.168C38.1055 14.6836 38.4219 14.0234 38.4219 13.1875C38.4219 12.3516 38.1289 11.707 37.543 11.2539C36.957 10.793 35.8945 10.3398 34.3555 9.89453ZM48.6055 9.89453C46.6758 9.33984 45.2695 8.66016 44.3867 7.85547C43.5117 7.04297 43.0742 6.04297 43.0742 4.85547C43.0742 3.51172 43.6094 2.40234 44.6797 1.52734C45.7578 0.644531 47.1562 0.203125 48.875 0.203125C50.0469 0.203125 51.0898 0.429687 52.0039 0.882812C52.9258 1.33594 53.6367 1.96094 54.1367 2.75781C54.6445 3.55469 54.8984 4.42578 54.8984 5.37109H52.6367C52.6367 4.33984 52.3086 3.53125 51.6523 2.94531C50.9961 2.35156 50.0703 2.05469 48.875 2.05469C47.7656 2.05469 46.8984 2.30078 46.2734 2.79297C45.6562 3.27734 45.3477 3.95312 45.3477 4.82031C45.3477 5.51562 45.6406 6.10547 46.2266 6.58984C46.8203 7.06641 47.8242 7.50391 49.2383 7.90234C50.6602 8.30078 51.7695 8.74219 52.5664 9.22656C53.3711 9.70312 53.9648 10.2617 54.3477 10.9023C54.7383 11.543 54.9336 12.2969 54.9336 13.1641C54.9336 14.5469 54.3945 15.6562 53.3164 16.4922C52.2383 17.3203 50.7969 17.7344 48.9922 17.7344C47.8203 17.7344 46.7266 17.5117 45.7109 17.0664C44.6953 16.6133 43.9102 15.9961 43.3555 15.2148C42.8086 14.4336 42.5352 13.5469 42.5352 12.5547H44.7969C44.7969 13.5859 45.1758 14.4023 45.9336 15.0039C46.6992 15.5977 47.7188 15.8945 48.9922 15.8945C50.1797 15.8945 51.0898 15.6523 51.7227 15.168C52.3555 14.6836 52.6719 14.0234 52.6719 13.1875C52.6719 12.3516 52.3789 11.707 51.793 11.2539C51.207 10.793 50.1445 10.3398 48.6055 9.89453ZM60.2422 17.5H57.9922V0.4375H60.2422V17.5ZM74.0117 9.61328H66.6172V15.6602H75.207V17.5H64.3672V0.4375H75.0898V2.28906H66.6172V7.77344H74.0117V9.61328Z" fill="black"/>
</svg>
