<svg width="50" height="51" viewBox="0 0 50 51" fill="none" xmlns="http://www.w3.org/2000/svg">
<circle opacity="0.2" cx="25" cy="25.5115" r="25" fill="url(#paint0_linear_111_140494)"/>
<path d="M9.82812 29.7849H15.2188V31.0115H8.32031V19.6365H9.82812V29.7849ZM16.3203 26.7068C16.3203 25.8787 16.4818 25.1339 16.8047 24.4724C17.1328 23.811 17.5859 23.3005 18.1641 22.9412C18.7474 22.5818 19.4115 22.4021 20.1562 22.4021C21.3073 22.4021 22.237 22.8005 22.9453 23.5974C23.6589 24.3943 24.0156 25.4542 24.0156 26.7771V26.8787C24.0156 27.7016 23.8568 28.4412 23.5391 29.0974C23.2266 29.7485 22.776 30.2563 22.1875 30.6208C21.6042 30.9854 20.9323 31.1677 20.1719 31.1677C19.026 31.1677 18.0964 30.7693 17.3828 29.9724C16.6745 29.1755 16.3203 28.1208 16.3203 26.8083V26.7068ZM17.7734 26.8787C17.7734 27.8162 17.9896 28.5688 18.4219 29.1365C18.8594 29.7042 19.4427 29.988 20.1719 29.988C20.9062 29.988 21.4896 29.7016 21.9219 29.1287C22.3542 28.5505 22.5703 27.7432 22.5703 26.7068C22.5703 25.7797 22.349 25.0297 21.9062 24.4568C21.4688 23.8787 20.8854 23.5896 20.1562 23.5896C19.4427 23.5896 18.8672 23.8735 18.4297 24.4412C17.9922 25.0089 17.7734 25.8214 17.7734 26.8787ZM25.4844 26.7146C25.4844 25.3969 25.7891 24.35 26.3984 23.574C27.0078 22.7927 27.8151 22.4021 28.8203 22.4021C29.8516 22.4021 30.6562 22.7667 31.2344 23.4958L31.3047 22.5583H32.625V30.8083C32.625 31.9021 32.2995 32.7641 31.6484 33.3943C31.0026 34.0245 30.1328 34.3396 29.0391 34.3396C28.4297 34.3396 27.8333 34.2094 27.25 33.949C26.6667 33.6886 26.2214 33.3318 25.9141 32.8787L26.6641 32.0115C27.2839 32.7771 28.0417 33.1599 28.9375 33.1599C29.6406 33.1599 30.1875 32.962 30.5781 32.5662C30.974 32.1703 31.1719 31.613 31.1719 30.8943V30.1677C30.5938 30.8344 29.8047 31.1677 28.8047 31.1677C27.8151 31.1677 27.013 30.7693 26.3984 29.9724C25.7891 29.1755 25.4844 28.0896 25.4844 26.7146ZM26.9375 26.8787C26.9375 27.8318 27.1328 28.5818 27.5234 29.1287C27.9141 29.6703 28.4609 29.9412 29.1641 29.9412C30.0755 29.9412 30.7448 29.5271 31.1719 28.699V24.8396C30.7292 24.0323 30.0651 23.6287 29.1797 23.6287C28.4766 23.6287 27.9271 23.9021 27.5312 24.449C27.1354 24.9958 26.9375 25.8057 26.9375 26.8787ZM34.4297 26.7068C34.4297 25.8787 34.5911 25.1339 34.9141 24.4724C35.2422 23.811 35.6953 23.3005 36.2734 22.9412C36.8568 22.5818 37.5208 22.4021 38.2656 22.4021C39.4167 22.4021 40.3464 22.8005 41.0547 23.5974C41.7682 24.3943 42.125 25.4542 42.125 26.7771V26.8787C42.125 27.7016 41.9661 28.4412 41.6484 29.0974C41.3359 29.7485 40.8854 30.2563 40.2969 30.6208C39.7135 30.9854 39.0417 31.1677 38.2812 31.1677C37.1354 31.1677 36.2057 30.7693 35.4922 29.9724C34.7839 29.1755 34.4297 28.1208 34.4297 26.8083V26.7068ZM35.8828 26.8787C35.8828 27.8162 36.099 28.5688 36.5312 29.1365C36.9688 29.7042 37.5521 29.988 38.2812 29.988C39.0156 29.988 39.599 29.7016 40.0312 29.1287C40.4635 28.5505 40.6797 27.7432 40.6797 26.7068C40.6797 25.7797 40.4583 25.0297 40.0156 24.4568C39.5781 23.8787 38.9948 23.5896 38.2656 23.5896C37.5521 23.5896 36.9766 23.8735 36.5391 24.4412C36.1016 25.0089 35.8828 25.8214 35.8828 26.8787Z" fill="black"/>
<defs>
<linearGradient id="paint0_linear_111_140494" x1="-27.8125" y1="-34.2108" x2="59.4889" y2="-23.8381" gradientUnits="userSpaceOnUse">
<stop stop-color="#F64D4D"/>
<stop offset="1" stop-color="#4D5EF6"/>
</linearGradient>
</defs>
</svg>
