<svg width="151" height="34" xmlns="http://www.w3.org/2000/svg">
 <g>
  <title>background</title>
  <rect x="-1" y="-1" width="153" height="36" id="canvas_background" fill="none"/>
 </g>

 <g>
  <title>Layer 1</title>
  <g stroke="null" id="svg_1">
   <path stroke-width="0" stroke="null" d="m0,10.0874l0,23.7544l7.8453,0l0,-6.2101l2.5471,0c6.0453,0 10.6642,-2.104 10.6642,-8.7552c0,-6.6852 -4.6189,-8.7891 -10.6642,-8.7891l-10.3924,0zm13.2792,8.7891c0,1.6289 -1.1547,2.3076 -2.9547,2.3076l-2.4792,0l0,-4.6491l2.4792,0c1.8,0 2.9547,0.6787 2.9547,2.3415z" fill="white" id="svg_2"/>
   <path stroke-width="0" stroke="null" d="m23.4154,10.0874l0,23.7544l18.0001,0l0,-6.8549l-10.1548,0l0,-16.8995l-7.8453,0z" fill="white" id="svg_3"/>
   <path stroke-width="0" stroke="null" d="m49.6591,33.8418l1.0528,-3.156l8.2189,0l1.0191,3.156l7.947,0l-8.8642,-23.7544l-8.4227,0l-8.8981,23.7544l7.9472,0zm4.517,-13.8794c0.2377,-0.8823 0.4754,-1.8325 0.6453,-3.0541c0.1698,1.2216 0.4075,2.1718 0.6792,3.0541l1.6642,5.0563l-4.6529,0l1.6642,-5.0563z" fill="white" id="svg_4"/>
   <path stroke-width="0" stroke="null" d="m67.3719,22.2021c0,8.6534 6.487,12.1826 13.211,12.1826c2.513,0 4.857,-0.4751 6.963,-1.4253l0,-7.1602c-1.223,1.0859 -3.499,1.6967 -5.944,1.6967c-3.124,0 -6.181,-1.561 -6.181,-5.2938c0,-4.2418 3.091,-5.8707 6.351,-5.8707c2.106,0 4.279,0.7126 5.604,1.6289l0,-6.9906c-2.106,-0.9502 -4.551,-1.4253 -6.997,-1.4253c-6.52,0 -13.041,3.631 -13.007,12.6577z" fill="white" id="svg_5"/>
   <path stroke-width="0" stroke="null" d="m90.4119,10.0874l0,23.7544l18.203,0l0,-6.2441l-10.358,0l0,-2.8165l8.932,0l0,-5.769l-8.932,0l0,-2.7487l10.155,0l0,-6.1761l-18,0z" fill="white" id="svg_6"/>
   <rect stroke-width="0" stroke="null" x="127.1909" y="10.0271" width="7.93625" height="23.8088" fill="#4656E3" id="svg_7"/>
   <path stroke-width="0" stroke="null" d="m150.9999,17.9634c-9.524,0 -15.82,10.6081 -15.873,15.8725l-7.936,0c0,-7.9362 7.936,-23.8087 23.809,-23.8087l0,7.9362z" fill="#4D5EF6" id="svg_8"/>
   <path stroke-width="0" stroke="null" d="m117.7469,10.0271l-5.629,0c0,9.2296 5.629,15.6082 10.523,15.6082c4.55,0 10.034,-6.5448 10.034,-15.6082l-5.484,0c0,3.4069 -2.592,9.4899 -4.55,9.4899c-1.958,0 -4.894,-6.0145 -4.894,-9.4899z" fill="#F64D4D" id="svg_9"/>
   <path stroke-width="0" stroke="null" d="m150.9999,25.8996c-9.524,0 -15.82,-10.6081 -15.873,-15.8725l-7.936,0c0,7.9362 7.936,23.8088 23.809,23.8088l0,-7.9363z" fill="#FE5F5F" id="svg_10"/>
   <rect stroke-width="0" stroke="null" x="109.8109" y="10.0271" width="7.93625" height="23.8088" fill="#E34646" id="svg_11"/>
   <rect stroke-width="0" stroke="null" x="127.1909" y="0.0273" width="7.93625" height="7.93625" fill="#FE5F5F" id="svg_12"/>
   <path stroke-width="0" stroke="null" d="m50.2687,7.8031l-1.7169,0l0,-4.7892l-0.0372,0l-1.8976,4.7095l-1.1163,0l-1.8923,-4.7095l-0.0425,0l0,4.7892l-1.7169,0l0,-7.6702l2.2537,0l1.9349,4.9274l0.0425,0l1.9348,-4.9274l2.2538,0l0,7.6702z" fill="white" id="svg_13"/>
   <path stroke-width="0" stroke="null" d="m55.9882,6.1181l-2.5089,0l-0.4891,1.685l-1.988,0l2.5781,-7.6702l2.3866,0l2.578,7.6702l-2.073,0l-0.4837,-1.685zm-2.1315,-1.4033l1.7488,0l-0.8505,-2.9554l-0.0425,0l-0.8558,2.9554z" fill="white" id="svg_14"/>
   <path stroke-width="0" stroke="null" d="m62.4149,0.1329c1.162,0 2.064,0.326 2.705,0.978c0.645,0.6592 0.968,1.5965 0.968,2.8119c0,1.2226 -0.323,2.1758 -0.968,2.8598c-0.645,0.6804 -1.546,1.0205 -2.705,1.0205l-3.1311,0l0,-7.6702l3.1311,0zm-1.18,6.0969l0.919,0c1.301,0 1.951,-0.7672 1.951,-2.3017c0,-0.7158 -0.17,-1.2668 -0.51,-1.6531c-0.34,-0.3791 -0.821,-0.5687 -1.441,-0.5687l-0.919,0l0,4.5235z" fill="white" id="svg_15"/>
   <path stroke-width="0" stroke="null" d="m72.3019,7.8031l-5.257,0l0,-7.6702l5.257,0l0,1.5734l-3.307,0l0,1.5255l3.11,0l0,1.4352l-3.11,0l0,1.5628l3.307,0l0,1.5733z" fill="white" id="svg_16"/>
   <path stroke-width="0" stroke="null" d="m75.6019,7.8031l0,-7.6702l1.951,0l0,7.6702l-1.951,0z" fill="white" id="svg_17"/>
   <path stroke-width="0" stroke="null" d="m78.7169,7.8031l0,-7.6702l1.558,0l3.253,4.4597l0.042,0l0,-4.4597l1.85,0l0,7.6702l-1.541,0l-3.269,-4.5022l-0.043,0l0,4.5022l-1.85,0z" fill="white" id="svg_18"/>
   <path stroke-width="0" stroke="null" d="m88.7849,7.8031l0,-7.6702l1.951,0l0,3.37l0.042,0l2.61,-3.37l2.094,0l-2.673,3.4072l2.828,4.263l-2.291,0l-1.956,-2.9979l-0.654,0.8292l0,2.1687l-1.951,0z" fill="white" id="svg_19"/>
   <path stroke-width="0" stroke="null" d="m99.4959,0c1.162,0 2.083,0.3561 2.764,1.0684c0.68,0.7123 1.02,1.6797 1.02,2.9023c0,1.2225 -0.34,2.1882 -1.02,2.8969c-0.681,0.7123 -1.602,1.0684 -2.764,1.0684c-1.166,0 -2.089,-0.3561 -2.77,-1.0684c-0.68,-0.7087 -1.02,-1.6744 -1.02,-2.8969c0,-1.2226 0.342,-2.19 1.026,-2.9023c0.68,-0.7123 1.601,-1.0684 2.764,-1.0684zm0,1.584c-0.546,0 -0.982,0.2144 -1.308,0.6432c-0.33,0.4323 -0.494,1.0135 -0.494,1.7435c0,0.7264 0.163,1.3058 0.489,1.7381c0.326,0.4288 0.763,0.6432 1.313,0.6432c0.545,0 0.981,-0.2144 1.307,-0.6432c0.33,-0.4323 0.495,-1.0117 0.495,-1.7381c0,-0.73 -0.165,-1.3112 -0.495,-1.7435c-0.326,-0.4288 -0.762,-0.6432 -1.307,-0.6432z" fill="white" id="svg_20"/>
   <path stroke-width="0" stroke="null" d="m106.1829,3.7846l1.153,0c0.358,0 0.638,-0.0974 0.84,-0.2923c0.202,-0.1949 0.303,-0.4589 0.303,-0.792c0,-0.3296 -0.105,-0.5936 -0.314,-0.792c-0.209,-0.202 -0.487,-0.303 -0.834,-0.303l-1.148,0l0,2.1793zm0,4.0185l-1.951,0l0,-7.6702l3.295,0c0.95,0 1.68,0.2232 2.19,0.6697c0.504,0.4394 0.755,1.0596 0.755,1.8605c0,0.4819 -0.113,0.9142 -0.34,1.2969c-0.234,0.4005 -0.556,0.6911 -0.967,0.8718l1.53,2.9713l-2.19,0l-1.312,-2.6843l-1.01,0l0,2.6843z" fill="white" id="svg_21"/>
   <path stroke-width="0" stroke="null" d="m116.7069,7.8031l-5.257,0l0,-7.6702l5.257,0l0,1.5734l-3.306,0l0,1.5255l3.11,0l0,1.4352l-3.11,0l0,1.5628l3.306,0l0,1.5733z" fill="white" id="svg_22"/>
   <path stroke-width="0" stroke="null" d="m122.3679,6.1181l-2.509,0l-0.489,1.685l-1.988,0l2.578,-7.6702l2.387,0l2.578,7.6702l-2.073,0l-0.484,-1.685zm-2.131,-1.4033l1.749,0l-0.851,-2.9554l-0.042,0l-0.856,2.9554z" fill="white" id="svg_23"/>
  </g>
 </g>
</svg>