<svg width="29" height="19" viewBox="0 0 29 19" fill="none" xmlns="http://www.w3.org/2000/svg">
<g clip-path="url(#clip0_111_117671)">
<path d="M18.0551 16.1021H10.3694V2.25296H18.0552L18.0551 16.1021Z" fill="#6C6BBD"/>
<path d="M10.857 9.17777C10.857 6.36847 12.1688 3.86597 14.2118 2.25331C12.7179 1.07403 10.8322 0.370117 8.78325 0.370117C3.93229 0.370117 0 4.31339 0 9.17777C0 14.0423 3.93229 17.9855 8.78325 17.9855C10.8323 17.9855 12.7179 17.2816 14.2118 16.1024C12.1688 14.4897 10.857 11.9872 10.857 9.17789" fill="#D32011"/>
<path d="M28.4238 9.17777C28.4238 14.0423 24.4915 17.9855 19.6405 17.9855C17.5914 17.9855 15.7059 17.2816 14.2114 16.1024C16.255 14.4897 17.5668 11.9872 17.5668 9.17789C17.5668 6.36847 16.255 3.86597 14.2114 2.25331C15.7059 1.07403 17.5916 0.370117 19.6405 0.370117C24.4915 0.370117 28.4238 4.31339 28.4238 9.17777Z" fill="#0099DF"/>
</g>
<defs>
<clipPath id="clip0_111_117671">
<rect width="29" height="18" fill="white" transform="translate(0 0.370117)"/>
</clipPath>
</defs>
</svg>
