<svg width="16" height="10" viewBox="0 0 16 10" fill="none" xmlns="http://www.w3.org/2000/svg">
<path d="M14.9424 4.79112C13.4446 2.02224 10.818 0.34668 7.91132 0.34668C5.00465 0.34668 2.37354 2.02224 0.889093 4.79112L0.764648 5.00001L0.880204 5.21335C2.37798 7.98223 5.00465 9.65779 7.91132 9.65779C10.818 9.65779 13.4491 8.00446 14.9424 5.21335L15.058 5.00001L14.9424 4.79112ZM7.91132 8.74668C5.40909 8.74668 3.11132 7.35112 1.77798 5.00001C3.11132 2.6489 5.40909 1.25335 7.91132 1.25335C10.4135 1.25335 12.6846 2.65335 14.0402 5.00001C12.6846 7.35112 10.4091 8.74668 7.91132 8.74668Z" fill="#464646" fill-opacity="0.55"/>
<path d="M8.03982 1.96444C7.43721 1.96883 6.84941 2.15172 6.35068 2.48998C5.85194 2.82825 5.46463 3.30673 5.23767 3.86499C5.01071 4.42325 4.95428 5.03624 5.07551 5.62656C5.19673 6.21687 5.49017 6.75801 5.91877 7.18165C6.34737 7.60529 6.8919 7.89241 7.48358 8.00675C8.07526 8.12109 8.68756 8.05753 9.24314 7.82408C9.79872 7.59064 10.2727 7.19779 10.6051 6.69514C10.9375 6.1925 11.1136 5.60262 11.1109 4.99999C11.1092 4.59885 11.0283 4.202 10.8729 3.83218C10.7175 3.46236 10.4907 3.12683 10.2054 2.84484C9.92008 2.56284 9.58193 2.33992 9.21033 2.18884C8.83872 2.03777 8.44095 1.96151 8.03982 1.96444ZM8.03982 7.17333C7.61416 7.16894 7.19928 7.03887 6.8473 6.79947C6.49531 6.56006 6.22191 6.22198 6.06144 5.8277C5.90097 5.43342 5.86058 5.00051 5.94534 4.58335C6.0301 4.16618 6.23624 3.78337 6.53786 3.48298C6.83948 3.18258 7.22313 2.97801 7.64064 2.89495C8.05814 2.8119 8.49088 2.85406 8.8845 3.01614C9.27813 3.17822 9.61508 3.45299 9.85305 3.80595C10.091 4.15891 10.2194 4.57431 10.222 4.99999C10.2232 5.28648 10.1675 5.57035 10.0582 5.83515C9.94881 6.09995 9.78798 6.3404 9.58498 6.54257C9.38199 6.74473 9.14089 6.90459 8.87564 7.01286C8.6104 7.12114 8.3263 7.17568 8.03982 7.17333Z" fill="#464646" fill-opacity="0.55"/>
</svg>
