<svg width="15" height="16" viewBox="0 0 15 16" fill="none" xmlns="http://www.w3.org/2000/svg">
<path d="M14.385 4.87248C14.8788 4.3787 14.8711 3.74101 14.3769 3.24679L11.9263 0.796138C11.432 0.301918 10.7944 0.294266 10.3006 0.78805L1.31767 9.77095L0.0955494 14.2606C-0.0342462 14.8838 0.289249 15.2073 0.912439 15.0775L5.4021 13.8554L14.385 4.87248ZM1.32008 13.853L2.22068 10.5017L4.67133 12.9524L1.32008 13.853ZM5.48013 12.1436C4.64159 11.3043 3.2672 9.93064 3.02948 9.69293L8.28667 4.43573L10.7373 6.88638L5.48013 12.1436ZM11.5461 6.07758L9.09547 3.62693L10.7131 2.00932C11.1004 1.59672 11.1386 1.60016 11.5259 2.01337L13.1597 3.64715C13.5576 4.05065 13.5831 4.04389 13.1637 4.45999L11.5461 6.0776L11.5461 6.07758Z" fill="url(#paint0_linear_111_167415)"/>
<defs>
<linearGradient id="paint0_linear_111_167415" x1="17.8166" y1="-11.2719" x2="24.7675" y2="-3.77878" gradientUnits="userSpaceOnUse">
<stop stop-color="#F64D4D"/>
<stop offset="1" stop-color="#4D5EF6"/>
</linearGradient>
</defs>
</svg>
