<svg width="8" height="9" viewBox="0 0 8 9" fill="none" xmlns="http://www.w3.org/2000/svg">
<path d="M4.27148 7.01367H2.11523V9H1.40039V7.01367H0.205078V6.39844H1.40039V5.52539H0.205078V4.91602H1.40039V0.46875H4.30664C5.20508 0.46875 5.90625 0.697266 6.41016 1.1543C6.91797 1.60742 7.17188 2.22461 7.17188 3.00586C7.17188 3.80273 6.92578 4.42188 6.43359 4.86328C5.94141 5.30078 5.23828 5.52148 4.32422 5.52539H2.11523V6.39844H4.27148V7.01367ZM2.11523 4.91602H4.30664C4.98633 4.91602 5.51367 4.75195 5.88867 4.42383C6.26367 4.0918 6.45117 3.62305 6.45117 3.01758C6.45117 2.43164 6.26758 1.9668 5.90039 1.62305C5.53711 1.2793 5.03516 1.09961 4.39453 1.08398H2.11523V4.91602Z" fill="black"/>
</svg>
