<svg width="77" height="19" viewBox="0 0 77 19" fill="none" xmlns="http://www.w3.org/2000/svg">
<path d="M12.5352 0.9375V12.5391C12.5273 14.1484 12.0195 15.4648 11.0117 16.4883C10.0117 17.5117 8.65234 18.0859 6.93359 18.2109L6.33594 18.2344C4.46875 18.2344 2.98047 17.7305 1.87109 16.7227C0.761719 15.7148 0.199219 14.3281 0.183594 12.5625V0.9375H2.41016V12.4922C2.41016 13.7266 2.75 14.6875 3.42969 15.375C4.10938 16.0547 5.07812 16.3945 6.33594 16.3945C7.60938 16.3945 8.58203 16.0547 9.25391 15.375C9.93359 14.6953 10.2734 13.7383 10.2734 12.5039V0.9375H12.5352ZM20.2578 11.6367H14.5391V9.86719H20.2578V11.6367ZM27.0547 10.0664L24.9688 12.2344V18H22.7188V0.9375H24.9688V9.375L32.5508 0.9375H35.2695L28.5547 8.47266L35.7969 18H33.1016L27.0547 10.0664ZM41.4453 12.6211L41.7734 14.8711L42.2539 12.8438L45.6289 0.9375H47.5273L50.8203 12.8438L51.2891 14.9062L51.6523 12.6094L54.3008 0.9375H56.5625L52.4258 18H50.375L46.8594 5.56641L46.5898 4.26562L46.3203 5.56641L42.6758 18H40.625L36.5 0.9375H38.75L41.4453 12.6211ZM67.9766 13.5469H60.8281L59.2227 18H56.9023L63.418 0.9375H65.3867L71.9141 18H69.6055L67.9766 13.5469ZM61.5078 11.6953H67.3086L64.4023 3.71484L61.5078 11.6953ZM76.625 18H74.375V0.9375H76.625V18Z" fill="black"/>
</svg>
