<svg width="50" height="17" viewBox="0 0 50 17" fill="none" xmlns="http://www.w3.org/2000/svg">
<path d="M25.5223 5.46471C25.4942 7.68466 27.5007 8.92341 29.0122 9.65998C30.5652 10.4156 31.0868 10.9003 31.0807 11.5761C31.0691 12.6103 29.8419 13.0668 28.6936 13.0846C26.6901 13.1156 25.5252 12.5436 24.5991 12.1111L23.8774 15.4882C24.8066 15.9164 26.527 16.2898 28.3111 16.3062C32.4991 16.3062 35.2389 14.2389 35.2538 11.0337C35.2702 6.96582 29.6272 6.74066 29.6657 4.92244C29.679 4.37112 30.2051 3.78278 31.3579 3.63319C31.9285 3.55762 33.5036 3.49979 35.2894 4.32215L35.9904 1.05468C35.03 0.704997 33.7957 0.370153 32.2589 0.370153C28.3171 0.370153 25.5447 2.46557 25.5223 5.46471ZM42.7254 0.651599C41.9607 0.651599 41.3162 1.09767 41.0286 1.7822L35.0464 16.0662H39.2312L40.064 13.7647H45.1778L45.6609 16.0662H49.3494L46.1307 0.651599H42.7254ZM43.3108 4.81565L44.5186 10.604H41.211L43.3108 4.81565ZM20.4484 0.651792L17.1497 16.066H21.1375L24.4347 0.651406H20.4484V0.651792ZM14.549 0.651406L10.3983 11.1434L8.71923 2.22249C8.52222 1.22663 7.74419 0.651599 6.88019 0.651599H0.0950361L0 1.09921C1.39296 1.40148 2.97561 1.889 3.93446 2.41063C4.52125 2.72929 4.68858 3.00784 4.88135 3.76504L8.06149 16.0662H12.2757L18.7366 0.651599H14.549" fill="url(#paint0_linear_111_126163)"/>
<defs>
<linearGradient id="paint0_linear_111_126163" x1="22.6879" y1="16.6258" x2="23.1492" y2="0.259323" gradientUnits="userSpaceOnUse">
<stop stop-color="#222357"/>
<stop offset="1" stop-color="#254AA5"/>
</linearGradient>
</defs>
</svg>
