<svg width="45" height="44" viewBox="0 0 45 44" fill="none" xmlns="http://www.w3.org/2000/svg">
<g filter="url(#filter0_d_111_125371)">
<rect x="8" y="8" width="28.1951" height="28" rx="4" fill="white"/>
<path d="M27.6649 14H16.5307C15.4128 14 14.5063 14.8955 14.5063 16V28C14.5063 29.1045 15.4128 30 16.5307 30H27.6649C28.7828 30 29.6892 29.1045 29.6892 28V16C29.6892 14.8955 28.7828 14 27.6649 14ZM28.6771 28C28.6771 28.5525 28.2241 29 27.6649 29H16.5307C15.9715 29 15.5185 28.5525 15.5185 28V18H28.6771V28H28.6771ZM28.6771 17H15.5185V16C15.5185 15.4475 15.9715 15 16.5307 15H27.6649C28.2241 15 28.6771 15.448 28.6771 16V17H28.6771ZM26.1466 23C26.9852 23 27.6649 22.3285 27.6649 21.5C27.6649 20.6715 26.9852 20 26.1466 20C25.308 20 24.6283 20.6715 24.6283 21.5C24.6283 22.3285 25.308 23 26.1466 23ZM25.6405 21H26.6527V22H25.6405V21ZM26.1466 27C26.9852 27 27.6649 26.3285 27.6649 25.5C27.6649 24.6715 26.9852 24 26.1466 24C25.308 24 24.6283 24.6715 24.6283 25.5C24.6283 26.3285 25.308 27 26.1466 27ZM25.6405 25H26.6527V26H25.6405V25ZM18.049 23C18.8876 23 19.5673 22.3285 19.5673 21.5C19.5673 20.6715 18.8876 20 18.049 20C17.2104 20 16.5307 20.6715 16.5307 21.5C16.5307 22.3285 17.2104 23 18.049 23ZM17.5429 21H18.5551V22H17.5429V21ZM22.0978 23C22.9364 23 23.6161 22.3285 23.6161 21.5C23.6161 20.6715 22.9364 20 22.0978 20C21.2592 20 20.5795 20.6715 20.5795 21.5C20.5795 22.3285 21.2592 23 22.0978 23ZM21.5917 21H22.6039V22H21.5917V21ZM18.049 27C18.8876 27 19.5673 26.3285 19.5673 25.5C19.5673 24.6715 18.8876 24 18.049 24C17.2104 24 16.5307 24.6715 16.5307 25.5C16.5307 26.3285 17.2104 27 18.049 27ZM17.5429 25H18.5551V26H17.5429V25ZM22.0978 27C22.9364 27 23.6161 26.3285 23.6161 25.5C23.6161 24.6715 22.9364 24 22.0978 24C21.2592 24 20.5795 24.6715 20.5795 25.5C20.5795 26.3285 21.2592 27 22.0978 27ZM21.5917 25H22.6039V26H21.5917V25Z" fill="url(#paint0_linear_111_125371)"/>
<rect x="8.25" y="8.25" width="27.6951" height="27.5" rx="3.75" stroke="url(#paint1_linear_111_125371)" stroke-width="0.5"/>
</g>
<defs>
<filter id="filter0_d_111_125371" x="0" y="0" width="44.1953" height="44" filterUnits="userSpaceOnUse" color-interpolation-filters="sRGB">
<feFlood flood-opacity="0" result="BackgroundImageFix"/>
<feColorMatrix in="SourceAlpha" type="matrix" values="0 0 0 0 0 0 0 0 0 0 0 0 0 0 0 0 0 0 127 0" result="hardAlpha"/>
<feOffset/>
<feGaussianBlur stdDeviation="4"/>
<feColorMatrix type="matrix" values="0 0 0 0 0 0 0 0 0 0 0 0 0 0 0 0 0 0 0.08 0"/>
<feBlend mode="normal" in2="BackgroundImageFix" result="effect1_dropShadow_111_125371"/>
<feBlend mode="normal" in="SourceGraphic" in2="effect1_dropShadow_111_125371" result="shape"/>
</filter>
<linearGradient id="paint0_linear_111_125371" x1="6.06086" y1="2.88888" x2="32.6074" y2="5.88191" gradientUnits="userSpaceOnUse">
<stop stop-color="#F64D4D"/>
<stop offset="1" stop-color="#4D5EF6"/>
</linearGradient>
<linearGradient id="paint1_linear_111_125371" x1="-7.68354" y1="-11.4445" x2="41.5363" y2="-5.5557" gradientUnits="userSpaceOnUse">
<stop stop-color="#F64D4D"/>
<stop offset="1" stop-color="#4D5EF6"/>
</linearGradient>
</defs>
</svg>
